<?xml version="1.0" encoding="UTF-8"?>
<svg id="Layer_2" data-name="Layer 2" xmlns="http://www.w3.org/2000/svg" viewBox="0 0 141.97 140.5">
  <defs>
    <style>
      .cls-1 {
        fill: #e75725;
      }
    </style>
  </defs>
  <g id="Layer_1-2" data-name="Layer 1">
    <g>
      <circle class="cls-1" cx="60.09" cy="80.41" r="16.48"/>
      <path d="M76.34,72.5c1.17,2.39,1.85,5.07,1.85,7.91,0,9.97-8.12,18.09-18.09,18.09s-18.09-8.12-18.09-18.09,8.12-18.09,18.09-18.09c4.22,0,8.11,1.47,11.19,3.9l2.81-2.89c-3.81-3.13-8.69-5.02-14-5.02-12.18,0-22.09,9.91-22.09,22.09s9.91,22.09,22.09,22.09,22.09-9.91,22.09-22.09c0-3.98-1.06-7.7-2.91-10.93l-2.94,3.02Z"/>
      <path d="M89.97,58.47c4.52,6.15,7.21,13.73,7.21,21.93,0,20.45-16.64,37.09-37.09,37.09s-37.09-16.64-37.09-37.09,16.64-37.09,37.09-37.09c9.37,0,17.93,3.5,24.47,9.25l2.79-2.87c-7.26-6.45-16.81-10.38-27.26-10.38-22.66,0-41.09,18.43-41.09,41.09s18.43,41.09,41.09,41.09,41.09-18.43,41.09-41.09c0-9.33-3.13-17.93-8.38-24.84l-2.82,2.9Z"/>
      <path d="M103.34,44.73c8.02,9.7,12.84,22.14,12.84,35.68,0,30.93-25.16,56.09-56.09,56.09S4,111.34,4,80.41,29.16,24.32,60.09,24.32c14.51,0,27.75,5.54,37.72,14.62l2.79-2.87c-10.69-9.78-24.92-15.75-40.51-15.75C26.96,20.32,0,47.27,0,80.41s26.96,60.09,60.09,60.09,60.09-26.96,60.09-60.09c0-14.66-5.29-28.11-14.05-38.55l-2.8,2.88Z"/>
      <path d="M141.97,12.2l-9.11-3.53-3.42-8.67-14.11,14.33,1.41,8.01-57.21,58.83c-.77.79-.75,2.06.04,2.83.39.38.89.57,1.39.57s1.04-.2,1.43-.61l57.25-58.88,7.25,2.26,15.08-15.14Z"/>
    </g>
  </g>
</svg>